<svg xmlns="http://www.w3.org/2000/svg" width="22.206" height="31.19" viewBox="0 0 22.206 31.19">
  <g id="Raggruppa_1344" data-name="Raggruppa 1344" transform="translate(-170.427 -72.161)">
    <path id="Tracciato_570" data-name="Tracciato 570" d="M189.182,90.8a.3.3,0,0,1,.308-.227,2.983,2.983,0,0,0,2.137-4.929,2.951,2.951,0,0,0-1.762-1c.087-.035.126-.055.165-.067.54-.169,1.079-.34,1.62-.5a.511.511,0,0,0,.4-.568,13.814,13.814,0,0,0-.394-3.172,10.23,10.23,0,0,0-4.08-6.156,10.358,10.358,0,0,0-6.213-1.771,9.94,9.94,0,0,0-6.471,2.22c-2.8,2.336-3.827,5.459-3.88,8.992a.427.427,0,0,0,.321.428c.249.089.5.172.753.252.352.111.707.215,1.1.333-.069.024-.092.035-.117.041a2.983,2.983,0,0,0,.553,5.9c.181.007.2.1.246.225a10.036,10.036,0,0,0,2.883,4.188,12.809,12.809,0,0,0-5,2.9,1.094,1.094,0,0,0,0,1.581,15.033,15.033,0,0,0,19.59,0,1.1,1.1,0,0,0,0-1.581,12.823,12.823,0,0,0-5.009-2.9A10.211,10.211,0,0,0,189.182,90.8Zm2.3-3.122a2.064,2.064,0,0,1-1.928,2c.078-.7.184-1.374.222-2.054s.009-1.366.009-2.056A2.06,2.06,0,0,1,191.487,87.682ZM171.875,83.1c.235-3.414,1.334-6.351,4.273-8.315a10.245,10.245,0,0,1,10.545-.135c3.083,1.942,4.24,4.935,4.487,8.449A53.681,53.681,0,0,0,171.875,83.1Zm-.273,4.872a2.072,2.072,0,0,1,1.546-2.4c.1,1.37.2,2.732.3,4.1C172.734,89.782,171.769,88.932,171.6,87.975Zm1.857-4.194c.446-.263,4.39-.624,8.07-.679a44.548,44.548,0,0,1,8.053.65A30.662,30.662,0,0,1,173.458,83.781Zm17.12,14.9a13.943,13.943,0,0,1-18.073,0,12.025,12.025,0,0,1,5.354-2.867,6.288,6.288,0,0,0,6.353.525,9.357,9.357,0,0,0,.99-.531A12.043,12.043,0,0,1,190.578,98.681Zm-5.3-3.984q-.337.251-.705.476a6.478,6.478,0,0,1-.678.365,5.422,5.422,0,0,1-4.735.007,7.056,7.056,0,0,1-1.244-.749l-.122-.093a8.873,8.873,0,0,1-3.6-6.546c-.08-.963-.074-1.932-.107-2.9,0-.116,0-.233,0-.4a32.78,32.78,0,0,0,14.857.007c.01.1.022.166.022.235a17.545,17.545,0,0,1-.322,4.467A8.816,8.816,0,0,1,185.273,94.7Z" transform="translate(0)" fill="#f18f08" stroke="#f18f08" stroke-width="0.5"/>
    <path id="Tracciato_571" data-name="Tracciato 571" d="M255.462,88.322a.87.87,0,0,0-.953-.876c-.337,0-.675,0-1.011,0h-.985a.917.917,0,0,0-1.013.992,13.165,13.165,0,0,0,.406,3.385,3.188,3.188,0,0,0,.664,1.364,1.166,1.166,0,0,0,1.836-.01,2.518,2.518,0,0,0,.428-.693A10.77,10.77,0,0,0,255.462,88.322Zm-1.024,2.187a13.027,13.027,0,0,1-.456,1.736c-.071.229-.2.494-.482.5-.3.008-.407-.275-.515-.5a6.975,6.975,0,0,1-.524-2.222c-.053-.48-.065-.963-.088-1.446-.006-.112-.033-.251.158-.25.673,0,1.345,0,2.108,0C254.574,89.084,254.552,89.8,254.438,90.51Z" transform="translate(-71.962 -13.388)" fill="#f18f08" stroke="#f18f08" stroke-width="0.5"/>
    <path id="Tracciato_572" data-name="Tracciato 572" d="M206.856,109.9a2.517,2.517,0,0,0-.355-.734c-.48-.629-.984-1.24-1.493-1.845a2.192,2.192,0,0,0-.517-.44.889.889,0,0,0-1.288.262c-.381.524-.768,1.042-1.151,1.563a.945.945,0,0,0,.277,1.5,7.784,7.784,0,0,0,.914.491,6.917,6.917,0,0,0,2.341.73C206.705,111.446,207.166,110.835,206.856,109.9Zm-1.33.65a7.984,7.984,0,0,1-2.685-1.046,1.569,1.569,0,0,1-.184-.152c.445-.6.871-1.18,1.307-1.768a1.489,1.489,0,0,1,.2.129,7.88,7.88,0,0,1,1.789,2.259,2.174,2.174,0,0,1,.117.513A1.874,1.874,0,0,1,205.526,110.545Z" transform="translate(-27.702 -30.539)" fill="#f18f08" stroke="#f18f08" stroke-width="0.5"/>
    <path id="Tracciato_573" data-name="Tracciato 573" d="M295.44,108.9c-.44-.615-.894-1.22-1.345-1.828a.664.664,0,0,0-.687-.3,1.781,1.781,0,0,0-.755.33,8.719,8.719,0,0,0-1.819,2.169,3.394,3.394,0,0,0-.319.693c-.29.917.159,1.516,1.186,1.512.04,0,.15-.009.257-.024a8.3,8.3,0,0,0,2.614-.929,3.54,3.54,0,0,0,.667-.423A.862.862,0,0,0,295.44,108.9Zm-.942.665a8,8,0,0,1-2.583,1.008,2.394,2.394,0,0,1-.6-.042,2.266,2.266,0,0,1,.13-.561,7.911,7.911,0,0,1,1.782-2.23,1.713,1.713,0,0,1,.187-.125c.441.6.868,1.179,1.308,1.777A2.1,2.1,0,0,1,294.5,109.562Z" transform="translate(-106.626 -30.576)" fill="#f18f08" stroke="#f18f08" stroke-width="0.5"/>
  </g>
</svg>
