<svg xmlns="http://www.w3.org/2000/svg" width="15" height="15" viewBox="0 0 15 15">
  <path id="distance-dark" d="M5.333,17c1.167-1.244,2.333-2.359,2.333-3.733a2.415,2.415,0,0,0-2.333-2.489A2.415,2.415,0,0,0,3,13.267C3,14.641,4.167,15.756,5.333,17Zm0,0h8.944a1.944,1.944,0,1,0,0-3.889H12.333m2.333-3.889C15.833,7.978,17,6.863,17,5.489A2.415,2.415,0,0,0,14.667,3a2.415,2.415,0,0,0-2.333,2.489C12.333,6.863,13.5,7.978,14.667,9.222Zm0,0H11.944a1.944,1.944,0,0,0,0,3.889H12.8" transform="translate(-2.5 -2.5)" fill="none" stroke="#222" stroke-linecap="round" stroke-linejoin="round" stroke-width="1"/>
</svg>
